<svg width="24" height="24" viewBox="0 0 24 24" fill="currentColor" xmlns="http://www.w3.org/2000/svg">
  <path fill-rule="evenodd" clip-rule="evenodd" d="M3.19611 2.01942L3 3.00001L2.01942 3.19612L1.72524 1.72525L3.19611 2.01942ZM18.6383 14.2241C18.6448 14.1996 18.6512 14.1745 18.6576 14.1488C18.7667 13.7124 18.875 13.0984 18.875 12.375C18.875 10.9107 18.4278 9.01363 16.7071 7.2929C15.8257 6.41148 14.503 5.66411 13.1122 5.04062C11.7004 4.40774 10.1257 3.86254 8.66616 3.41833C7.20359 2.9732 5.83902 2.6242 4.84099 2.38657C4.34146 2.26764 3.93248 2.1763 3.64741 2.1145C3.50484 2.0836 3.39319 2.06006 3.3166 2.04414L3.22852 2.02599L3.20516 2.02125L3.19611 2.01942C3.19611 2.01942 3.19611 2.01942 3 3.00001C2.01942 3.19612 2.01942 3.19612 2.01942 3.19612L2.02124 3.20517L2.02598 3.22853L2.04413 3.31661C2.06005 3.39319 2.08359 3.50485 2.1145 3.64741C2.17629 3.93248 2.26763 4.34147 2.38657 4.841C2.62419 5.83903 2.9732 7.2036 3.41832 8.66617C3.86254 10.1257 4.40774 11.7004 5.04061 13.1122C5.6641 14.503 6.41148 15.8257 7.29289 16.7071C9.01363 18.4278 10.9107 18.875 12.375 18.875C13.0983 18.875 13.7124 18.7668 14.1488 18.6576C14.1745 18.6512 14.1996 18.6448 14.2241 18.6384L17.4393 21.8536C18.0251 22.4393 18.9749 22.4393 19.5607 21.8536L21.8536 19.5607C22.4393 18.9749 22.4393 18.0251 21.8536 17.4393L18.6383 14.2241ZM6.21045 4.79624C6.79859 4.95419 7.43167 5.13319 8.08384 5.33168C9.49928 5.76247 10.9871 6.27976 12.2941 6.86564C13.622 7.4609 14.6743 8.08853 15.2929 8.70711C16.5722 9.98638 16.875 11.3393 16.875 12.375C16.875 12.9017 16.7958 13.3501 16.7174 13.6637C16.6784 13.8197 16.6402 13.9399 16.6136 14.0166C16.6003 14.055 16.5901 14.0822 16.5841 14.0975L16.5789 14.1107L16.3142 14.7284L20.0858 18.5L18.5 20.0858L14.7284 16.3142L14.1107 16.5789L14.0975 16.5841C14.0822 16.5901 14.055 16.6003 14.0166 16.6136C13.9398 16.6402 13.8197 16.6784 13.6637 16.7174C13.3501 16.7958 12.9017 16.875 12.375 16.875C11.3393 16.875 9.98637 16.5722 8.7071 15.2929C8.08852 14.6743 7.46089 13.622 6.86563 12.2941C6.27976 10.9871 5.76246 9.49929 5.33167 8.08384C5.13319 7.43168 4.95418 6.79859 4.79623 6.21045L10.2929 11.7071C10.6834 12.0976 11.3166 12.0976 11.7071 11.7071C12.0976 11.3166 12.0976 10.6834 11.7071 10.2929L6.21045 4.79624Z"/>
  <path d="M13 11C13 12.1046 12.1046 13 11 13C9.89543 13 9 12.1046 9 11C9 9.89544 9.89543 9.00001 11 9.00001C12.1046 9.00001 13 9.89544 13 11Z"/>
</svg>
