<svg width="24" height="24" viewBox="0 0 24 24" fill="currentColor" xmlns="http://www.w3.org/2000/svg">
  <path fill-rule="evenodd" clip-rule="evenodd" d="M12 3C7.02944 3 3 7.02944 3 12C3 16.9706 7.02944 21 12 21C16.9706 21 21 16.9706 21 12C21 7.02944 16.9706 3 12 3ZM1 12C1 5.92487 5.92487 1 12 1C18.0751 1 23 5.92487 23 12C23 18.0751 18.0751 23 12 23C5.92487 23 1 18.0751 1 12Z"/>
  <path fill-rule="evenodd" clip-rule="evenodd" d="M8.12132 12.1213C7.7308 11.7308 7.09763 11.7308 6.70711 12.1213C6.31658 12.5118 6.31658 13.145 6.70711 13.5355L9.53553 16.364C9.92606 16.7545 10.5592 16.7545 10.9497 16.364L11.6569 15.6569L8.12132 12.1213Z"/>
  <path fill-rule="evenodd" clip-rule="evenodd" d="M8.82843 15.6569L9.53553 16.364C9.92606 16.7545 10.5592 16.7545 10.9497 16.364L16.6066 10.7071C16.9971 10.3166 16.9971 9.68342 16.6066 9.29289C16.2161 8.90237 15.5829 8.90237 15.1924 9.29289L8.82843 15.6569Z"/>
</svg>